<svg xmlns="http://www.w3.org/2000/svg" width="14" height="15" viewBox="0 0 14 15">
    <path fill="#4d4d4d" fill-rule="nonzero" d="M8.671 0c.79 0 1.429.64 1.429 1.429v1.116h3.4a.5.5 0 0 1 .09.992l-.09.008h-.8v9.098c0 1.247-.97 2.269-2.196 2.352l-.161.005H3.657a2.357 2.357 0 0 1-2.352-2.196l-.005-.161V3.545H.5a.5.5 0 0 1-.492-.41L0 3.045a.5.5 0 0 1 .41-.491l.09-.009h3.4V1.429C3.9.686 4.467.076 5.191.007L5.329 0H8.67zM11.7 3.545H2.3v9.098c0 .705.538 1.285 1.226 1.35l.131.007h6.686c.705 0 1.285-.538 1.35-1.226l.007-.131V3.545zM8.671 1H5.33a.429.429 0 0 0-.429.429v1.116h4.2V1.429a.429.429 0 0 0-.352-.422L8.671 1z"/>
</svg>
